<svg width="2881" height="1353" viewBox="0 0 2881 1353" fill="none" xmlns="http://www.w3.org/2000/svg">
<path d="M449.668 600.643C408.311 638.491 355.423 657.415 291.006 657.415C211.299 657.415 148.636 631.849 103.018 580.716C57.3991 529.332 34.5898 458.899 34.5898 369.417C34.5898 272.666 60.5322 198.097 112.417 145.711C157.534 100.092 214.933 77.2832 284.614 77.2832C377.856 77.2832 446.034 107.863 489.146 169.021C512.957 203.361 525.741 237.825 527.495 272.415H411.694C404.175 245.846 394.525 225.794 382.744 212.259C361.689 188.196 330.483 176.165 289.126 176.165C247.017 176.165 213.805 193.209 189.492 227.298C165.179 261.136 153.022 309.135 153.022 371.297C153.022 433.458 165.806 480.079 191.372 511.16C217.189 541.99 249.899 557.405 289.502 557.405C330.107 557.405 361.063 544.121 382.368 517.552C394.149 503.265 403.924 481.834 411.694 453.26H526.367C516.341 513.667 490.775 562.794 449.668 600.643ZM942.949 428.445V87.8105H1060.63V428.445C1060.63 487.348 1051.48 533.217 1033.18 566.053C999.095 626.209 934.051 656.287 838.052 656.287C742.052 656.287 676.883 626.209 642.544 566.053C624.246 533.217 615.098 487.348 615.098 428.445V87.8105H732.778V428.445C732.778 466.544 737.29 494.367 746.313 511.912C760.35 542.993 790.929 558.533 838.052 558.533C884.924 558.533 915.378 542.993 929.414 511.912C938.438 494.367 942.949 466.544 942.949 428.445ZM1171.54 87.8105H1287.34V542.366H1561.81V642H1171.54V87.8105ZM1987.79 87.8105V185.94H1821.98V642H1705.43V185.94H1538.87V87.8105H1987.79ZM259.8 1211.92C287.121 1211.92 309.303 1208.91 326.348 1202.89C358.682 1191.36 374.849 1169.93 374.849 1138.6C374.849 1120.3 366.828 1106.14 350.786 1096.12C334.744 1086.34 309.554 1077.69 275.215 1070.17L216.562 1057.01C158.913 1043.98 119.059 1029.82 97.002 1014.53C59.6549 988.963 40.9814 948.984 40.9814 894.593C40.9814 844.964 59.0283 803.732 95.1221 770.896C131.216 738.061 184.229 721.644 254.16 721.644C312.562 721.644 362.316 737.184 403.423 768.265C444.78 799.095 466.462 843.961 468.467 902.864H357.178C355.173 869.528 340.635 845.841 313.564 831.805C295.518 822.531 273.084 817.894 246.265 817.894C216.437 817.894 192.625 823.909 174.829 835.94C157.033 847.972 148.135 864.765 148.135 886.321C148.135 906.123 156.908 920.911 174.453 930.687C185.732 937.203 209.795 944.848 246.641 953.621L342.139 976.556C383.997 986.582 415.579 999.992 436.885 1016.79C469.971 1042.85 486.514 1080.58 486.514 1129.95C486.514 1180.59 467.088 1222.69 428.237 1256.28C389.637 1289.62 334.995 1306.29 264.312 1306.29C192.124 1306.29 135.352 1289.87 93.9941 1257.03C52.6367 1223.95 31.958 1178.58 31.958 1120.93H142.495C146.004 1146.25 152.897 1165.17 163.174 1177.7C181.973 1200.51 214.181 1211.92 259.8 1211.92ZM902.72 1292V1044.61H686.157V1292H571.484V737.811H686.157V949.109H902.72V737.811H1017.77V1292H902.72ZM1453.15 1178.08H1248.99L1210.64 1292H1089.58L1287.34 737.811H1418.18L1614.44 1292H1488.87L1453.15 1178.08ZM1420.82 1082.58L1351.64 864.515L1280.2 1082.58H1420.82ZM1920.49 1074.69H1800.93V1292H1687.76V737.811H1959.59C1998.44 738.562 2028.27 743.325 2049.07 752.098C2070.13 760.87 2087.92 773.779 2102.46 790.823C2114.49 804.86 2124.02 820.4 2131.04 837.444C2138.05 854.489 2141.56 873.914 2141.56 895.721C2141.56 922.039 2134.92 947.981 2121.64 973.548C2108.35 998.864 2086.42 1016.79 2055.84 1027.31C2081.41 1037.59 2099.45 1052.25 2109.98 1071.3C2120.76 1090.1 2126.15 1118.93 2126.15 1157.78V1195C2126.15 1220.31 2127.15 1237.48 2129.16 1246.51C2132.16 1260.79 2139.18 1271.32 2150.21 1278.09V1292H2022.75C2019.24 1279.72 2016.74 1269.82 2015.23 1262.3C2012.23 1246.76 2010.6 1230.84 2010.35 1214.55L2009.59 1163.04C2009.09 1127.7 2002.58 1104.14 1990.04 1092.36C1977.76 1080.58 1954.58 1074.69 1920.49 1074.69ZM1990.8 973.924C2013.86 963.396 2025.39 942.592 2025.39 911.512C2025.39 877.924 2014.23 855.366 1991.92 843.836C1979.39 837.319 1960.59 834.061 1935.53 834.061H1800.93V982.947H1932.14C1958.21 982.947 1977.76 979.939 1990.8 973.924ZM2627.32 1049.87H2358.12V1192.37H2664.92V1292H2244.96V737.811H2651.39V835.94H2358.12V953.621H2627.32V1049.87Z" fill="black"/>
</svg>
